<svg width="53" height="53" viewBox="0 0 53 53" fill="none" xmlns="http://www.w3.org/2000/svg">
<path d="M50.5653 9.05971L43.9403 2.43471C43.7048 2.21529 43.3934 2.09583 43.0716 2.10151C42.7498 2.10719 42.4427 2.23756 42.2151 2.46515C41.9875 2.69274 41.8572 2.99978 41.8515 3.32159C41.8458 3.6434 41.9653 3.95486 42.1847 4.19033L42.8286 4.8342L30.9491 13.7365L22.9432 15.339C22.7028 15.386 22.482 15.5043 22.3097 15.6785L5.05985 32.9325C4.20585 33.7866 3.72609 34.945 3.72609 36.1529C3.72609 37.3607 4.20585 38.5191 5.05985 39.3732L13.6268 47.9402C14.4809 48.7942 15.6393 49.2739 16.8472 49.2739C18.055 49.2739 19.2134 48.7942 20.0675 47.9402L37.3153 30.6903C37.4895 30.518 37.6078 30.2973 37.6548 30.0568L39.2573 22.0509L48.1596 10.1715L48.8035 10.8153C49.039 11.0348 49.3504 11.1542 49.6722 11.1485C49.994 11.1429 50.3011 11.0125 50.5287 10.7849C50.7563 10.5573 50.8866 10.2503 50.8923 9.92845C50.898 9.60664 50.7785 9.29518 50.5591 9.05971H50.5653ZM18.3098 46.1825C17.9216 46.5706 17.3951 46.7886 16.8461 46.7886C16.2972 46.7886 15.7707 46.5706 15.3824 46.1825L6.81754 37.6176C6.42942 37.2294 6.21138 36.7029 6.21138 36.1539C6.21138 35.6049 6.42942 35.0784 6.81754 34.6902L8.28125 33.2265L19.7736 44.7188L18.3098 46.1825ZM21.5313 42.9611L10.0389 31.4688L19.875 21.6327L31.3673 33.125L21.5313 42.9611ZM37.1 20.786C36.9884 20.9338 36.912 21.1052 36.8764 21.287L35.2926 29.1914L33.125 31.3673L21.6327 19.875L23.8086 17.7074L31.7213 16.1236C31.9031 16.088 32.0745 16.0116 32.2223 15.9L44.6111 6.60846L46.3998 8.39721L37.1 20.786Z" fill="#EA641B"/>
</svg>
