<svg width="44" height="50" viewBox="0 0 44 50" fill="none" xmlns="http://www.w3.org/2000/svg">
<path d="M22 3.125C24.0838 3.125 26.0823 3.9481 27.5558 5.41323C29.0293 6.87836 29.8571 8.8655 29.8571 10.9375V12.5H14.1429V10.9375C14.1429 8.8655 14.9707 6.87836 16.4442 5.41323C17.9177 3.9481 19.9162 3.125 22 3.125ZM33 12.5V10.9375C33 8.03669 31.8411 5.2547 29.7782 3.20352C27.7153 1.15234 24.9174 0 22 0C19.0826 0 16.2847 1.15234 14.2218 3.20352C12.1589 5.2547 11 8.03669 11 10.9375V12.5H0V43.75C0 45.4076 0.662243 46.9973 1.84104 48.1694C3.01984 49.3415 4.61864 50 6.28571 50H37.7143C39.3814 50 40.9802 49.3415 42.159 48.1694C43.3378 46.9973 44 45.4076 44 43.75V12.5H33ZM3.14286 15.625H40.8571V43.75C40.8571 44.5788 40.526 45.3737 39.9366 45.9597C39.3472 46.5458 38.5478 46.875 37.7143 46.875H6.28571C5.45218 46.875 4.65278 46.5458 4.06338 45.9597C3.47398 45.3737 3.14286 44.5788 3.14286 43.75V15.625Z" fill="#EA641B"/>
</svg>
