<svg width="429" height="467" viewBox="0 0 429 467" fill="none" xmlns="http://www.w3.org/2000/svg">
<line x1="65.5" x2="65.5" y2="404" stroke="#2B4872" stroke-width="3"/>
<line x1="64" y1="402.5" x2="428" y2="402.5" stroke="#2B4872" stroke-width="3"/>
<path d="M1.332 17C1.212 17 1.116 16.964 1.044 16.892C0.972 16.82 0.936 16.724 0.936 16.604V16.334C0.936 16.214 0.966 16.1 1.026 15.992C1.098 15.872 1.218 15.734 1.386 15.578L6.048 10.916C6.504 10.496 6.852 10.13 7.092 9.818C7.332 9.506 7.494 9.2 7.578 8.9C7.674 8.588 7.722 8.246 7.722 7.874C7.722 7.07 7.488 6.44 7.02 5.984C6.564 5.528 5.91 5.3 5.058 5.3C4.518 5.3 4.05 5.408 3.654 5.624C3.258 5.84 2.946 6.146 2.718 6.542C2.49 6.926 2.34 7.376 2.268 7.892C2.256 8.036 2.202 8.144 2.106 8.216C2.01 8.276 1.926 8.306 1.854 8.306H1.494C1.374 8.306 1.278 8.276 1.206 8.216C1.146 8.144 1.116 8.06 1.116 7.964C1.128 7.556 1.212 7.136 1.368 6.704C1.524 6.26 1.758 5.852 2.07 5.48C2.394 5.108 2.802 4.808 3.294 4.58C3.786 4.34 4.374 4.22 5.058 4.22C5.97 4.22 6.702 4.394 7.254 4.742C7.818 5.09 8.226 5.54 8.478 6.092C8.73 6.644 8.856 7.238 8.856 7.874C8.856 8.366 8.784 8.822 8.64 9.242C8.496 9.65 8.28 10.052 7.992 10.448C7.704 10.832 7.338 11.228 6.894 11.636L2.682 15.92H8.712C8.844 15.92 8.946 15.956 9.018 16.028C9.09 16.1 9.126 16.202 9.126 16.334V16.604C9.126 16.724 9.09 16.82 9.018 16.892C8.946 16.964 8.844 17 8.712 17H1.332ZM15.6163 17.18C14.8003 17.18 14.1163 17.048 13.5643 16.784C13.0243 16.52 12.5863 16.16 12.2503 15.704C11.9263 15.236 11.6923 14.702 11.5483 14.102C11.4043 13.502 11.3203 12.872 11.2963 12.212C11.2963 11.888 11.2903 11.558 11.2783 11.222C11.2783 10.886 11.2783 10.55 11.2783 10.214C11.2903 9.866 11.2963 9.524 11.2963 9.188C11.3083 8.528 11.3863 7.898 11.5303 7.298C11.6863 6.698 11.9263 6.17 12.2503 5.714C12.5863 5.246 13.0243 4.88 13.5643 4.616C14.1163 4.352 14.8003 4.22 15.6163 4.22C16.4323 4.22 17.1103 4.352 17.6503 4.616C18.2023 4.88 18.6403 5.246 18.9643 5.714C19.3003 6.17 19.5403 6.698 19.6843 7.298C19.8403 7.898 19.9243 8.528 19.9363 9.188C19.9483 9.524 19.9543 9.866 19.9543 10.214C19.9543 10.55 19.9543 10.886 19.9543 11.222C19.9543 11.558 19.9483 11.888 19.9363 12.212C19.9243 12.872 19.8403 13.502 19.6843 14.102C19.5403 14.702 19.3003 15.236 18.9643 15.704C18.6403 16.16 18.2023 16.52 17.6503 16.784C17.1103 17.048 16.4323 17.18 15.6163 17.18ZM15.6163 16.1C16.6843 16.1 17.4763 15.746 17.9923 15.038C18.5083 14.33 18.7783 13.358 18.8023 12.122C18.8143 11.774 18.8203 11.45 18.8203 11.15C18.8203 10.838 18.8203 10.532 18.8203 10.232C18.8203 9.92 18.8143 9.602 18.8023 9.278C18.7783 8.066 18.5083 7.1 17.9923 6.38C17.4763 5.66 16.6843 5.3 15.6163 5.3C14.5603 5.3 13.7683 5.66 13.2403 6.38C12.7243 7.1 12.4543 8.066 12.4303 9.278C12.4303 9.602 12.4243 9.92 12.4123 10.232C12.4123 10.532 12.4123 10.838 12.4123 11.15C12.4243 11.45 12.4303 11.774 12.4303 12.122C12.4543 13.358 12.7243 14.33 13.2403 15.038C13.7683 15.746 14.5603 16.1 15.6163 16.1ZM26.7081 17.18C25.8921 17.18 25.2081 17.048 24.6561 16.784C24.1161 16.52 23.6781 16.16 23.3421 15.704C23.0181 15.236 22.7841 14.702 22.6401 14.102C22.4961 13.502 22.4121 12.872 22.3881 12.212C22.3881 11.888 22.3821 11.558 22.3701 11.222C22.3701 10.886 22.3701 10.55 22.3701 10.214C22.3821 9.866 22.3881 9.524 22.3881 9.188C22.4001 8.528 22.4781 7.898 22.6221 7.298C22.7781 6.698 23.0181 6.17 23.3421 5.714C23.6781 5.246 24.1161 4.88 24.6561 4.616C25.2081 4.352 25.8921 4.22 26.7081 4.22C27.5241 4.22 28.2021 4.352 28.7421 4.616C29.2941 4.88 29.7321 5.246 30.0561 5.714C30.3921 6.17 30.6321 6.698 30.7761 7.298C30.9321 7.898 31.0161 8.528 31.0281 9.188C31.0401 9.524 31.0461 9.866 31.0461 10.214C31.0461 10.55 31.0461 10.886 31.0461 11.222C31.0461 11.558 31.0401 11.888 31.0281 12.212C31.0161 12.872 30.9321 13.502 30.7761 14.102C30.6321 14.702 30.3921 15.236 30.0561 15.704C29.7321 16.16 29.2941 16.52 28.7421 16.784C28.2021 17.048 27.5241 17.18 26.7081 17.18ZM26.7081 16.1C27.7761 16.1 28.5681 15.746 29.0841 15.038C29.6001 14.33 29.8701 13.358 29.8941 12.122C29.9061 11.774 29.9121 11.45 29.9121 11.15C29.9121 10.838 29.9121 10.532 29.9121 10.232C29.9121 9.92 29.9061 9.602 29.8941 9.278C29.8701 8.066 29.6001 7.1 29.0841 6.38C28.5681 5.66 27.7761 5.3 26.7081 5.3C25.6521 5.3 24.8601 5.66 24.3321 6.38C23.8161 7.1 23.5461 8.066 23.5221 9.278C23.5221 9.602 23.5161 9.92 23.5041 10.232C23.5041 10.532 23.5041 10.838 23.5041 11.15C23.5161 11.45 23.5221 11.774 23.5221 12.122C23.5461 13.358 23.8161 14.33 24.3321 15.038C24.8601 15.746 25.6521 16.1 26.7081 16.1ZM37.7999 17.18C36.9839 17.18 36.2999 17.048 35.7479 16.784C35.2079 16.52 34.7699 16.16 34.4339 15.704C34.1099 15.236 33.8759 14.702 33.7319 14.102C33.5879 13.502 33.5039 12.872 33.4799 12.212C33.4799 11.888 33.4739 11.558 33.4619 11.222C33.4619 10.886 33.4619 10.55 33.4619 10.214C33.4739 9.866 33.4799 9.524 33.4799 9.188C33.4919 8.528 33.5699 7.898 33.7139 7.298C33.8699 6.698 34.1099 6.17 34.4339 5.714C34.7699 5.246 35.2079 4.88 35.7479 4.616C36.2999 4.352 36.9839 4.22 37.7999 4.22C38.6159 4.22 39.2939 4.352 39.8339 4.616C40.3859 4.88 40.8239 5.246 41.1479 5.714C41.4839 6.17 41.7239 6.698 41.8679 7.298C42.0239 7.898 42.1079 8.528 42.1199 9.188C42.1319 9.524 42.1379 9.866 42.1379 10.214C42.1379 10.55 42.1379 10.886 42.1379 11.222C42.1379 11.558 42.1319 11.888 42.1199 12.212C42.1079 12.872 42.0239 13.502 41.8679 14.102C41.7239 14.702 41.4839 15.236 41.1479 15.704C40.8239 16.16 40.3859 16.52 39.8339 16.784C39.2939 17.048 38.6159 17.18 37.7999 17.18ZM37.7999 16.1C38.8679 16.1 39.6599 15.746 40.1759 15.038C40.6919 14.33 40.9619 13.358 40.9859 12.122C40.9979 11.774 41.0039 11.45 41.0039 11.15C41.0039 10.838 41.0039 10.532 41.0039 10.232C41.0039 9.92 40.9979 9.602 40.9859 9.278C40.9619 8.066 40.6919 7.1 40.1759 6.38C39.6599 5.66 38.8679 5.3 37.7999 5.3C36.7439 5.3 35.9519 5.66 35.4239 6.38C34.9079 7.1 34.6379 8.066 34.6139 9.278C34.6139 9.602 34.6079 9.92 34.5959 10.232C34.5959 10.532 34.5959 10.838 34.5959 11.15C34.6079 11.45 34.6139 11.774 34.6139 12.122C34.6379 13.358 34.9079 14.33 35.4239 15.038C35.9519 15.746 36.7439 16.1 37.7999 16.1Z" fill="black"/>
<path d="M1.332 17C1.212 17 1.116 16.964 1.044 16.892C0.972 16.82 0.936 16.724 0.936 16.604V16.334C0.936 16.214 0.966 16.1 1.026 15.992C1.098 15.872 1.218 15.734 1.386 15.578L6.048 10.916C6.504 10.496 6.852 10.13 7.092 9.818C7.332 9.506 7.494 9.2 7.578 8.9C7.674 8.588 7.722 8.246 7.722 7.874C7.722 7.07 7.488 6.44 7.02 5.984C6.564 5.528 5.91 5.3 5.058 5.3C4.518 5.3 4.05 5.408 3.654 5.624C3.258 5.84 2.946 6.146 2.718 6.542C2.49 6.926 2.34 7.376 2.268 7.892C2.256 8.036 2.202 8.144 2.106 8.216C2.01 8.276 1.926 8.306 1.854 8.306H1.494C1.374 8.306 1.278 8.276 1.206 8.216C1.146 8.144 1.116 8.06 1.116 7.964C1.128 7.556 1.212 7.136 1.368 6.704C1.524 6.26 1.758 5.852 2.07 5.48C2.394 5.108 2.802 4.808 3.294 4.58C3.786 4.34 4.374 4.22 5.058 4.22C5.97 4.22 6.702 4.394 7.254 4.742C7.818 5.09 8.226 5.54 8.478 6.092C8.73 6.644 8.856 7.238 8.856 7.874C8.856 8.366 8.784 8.822 8.64 9.242C8.496 9.65 8.28 10.052 7.992 10.448C7.704 10.832 7.338 11.228 6.894 11.636L2.682 15.92H8.712C8.844 15.92 8.946 15.956 9.018 16.028C9.09 16.1 9.126 16.202 9.126 16.334V16.604C9.126 16.724 9.09 16.82 9.018 16.892C8.946 16.964 8.844 17 8.712 17H1.332ZM15.6163 17.18C14.8003 17.18 14.1163 17.048 13.5643 16.784C13.0243 16.52 12.5863 16.16 12.2503 15.704C11.9263 15.236 11.6923 14.702 11.5483 14.102C11.4043 13.502 11.3203 12.872 11.2963 12.212C11.2963 11.888 11.2903 11.558 11.2783 11.222C11.2783 10.886 11.2783 10.55 11.2783 10.214C11.2903 9.866 11.2963 9.524 11.2963 9.188C11.3083 8.528 11.3863 7.898 11.5303 7.298C11.6863 6.698 11.9263 6.17 12.2503 5.714C12.5863 5.246 13.0243 4.88 13.5643 4.616C14.1163 4.352 14.8003 4.22 15.6163 4.22C16.4323 4.22 17.1103 4.352 17.6503 4.616C18.2023 4.88 18.6403 5.246 18.9643 5.714C19.3003 6.17 19.5403 6.698 19.6843 7.298C19.8403 7.898 19.9243 8.528 19.9363 9.188C19.9483 9.524 19.9543 9.866 19.9543 10.214C19.9543 10.55 19.9543 10.886 19.9543 11.222C19.9543 11.558 19.9483 11.888 19.9363 12.212C19.9243 12.872 19.8403 13.502 19.6843 14.102C19.5403 14.702 19.3003 15.236 18.9643 15.704C18.6403 16.16 18.2023 16.52 17.6503 16.784C17.1103 17.048 16.4323 17.18 15.6163 17.18ZM15.6163 16.1C16.6843 16.1 17.4763 15.746 17.9923 15.038C18.5083 14.33 18.7783 13.358 18.8023 12.122C18.8143 11.774 18.8203 11.45 18.8203 11.15C18.8203 10.838 18.8203 10.532 18.8203 10.232C18.8203 9.92 18.8143 9.602 18.8023 9.278C18.7783 8.066 18.5083 7.1 17.9923 6.38C17.4763 5.66 16.6843 5.3 15.6163 5.3C14.5603 5.3 13.7683 5.66 13.2403 6.38C12.7243 7.1 12.4543 8.066 12.4303 9.278C12.4303 9.602 12.4243 9.92 12.4123 10.232C12.4123 10.532 12.4123 10.838 12.4123 11.15C12.4243 11.45 12.4303 11.774 12.4303 12.122C12.4543 13.358 12.7243 14.33 13.2403 15.038C13.7683 15.746 14.5603 16.1 15.6163 16.1ZM26.7081 17.18C25.8921 17.18 25.2081 17.048 24.6561 16.784C24.1161 16.52 23.6781 16.16 23.3421 15.704C23.0181 15.236 22.7841 14.702 22.6401 14.102C22.4961 13.502 22.4121 12.872 22.3881 12.212C22.3881 11.888 22.3821 11.558 22.3701 11.222C22.3701 10.886 22.3701 10.55 22.3701 10.214C22.3821 9.866 22.3881 9.524 22.3881 9.188C22.4001 8.528 22.4781 7.898 22.6221 7.298C22.7781 6.698 23.0181 6.17 23.3421 5.714C23.6781 5.246 24.1161 4.88 24.6561 4.616C25.2081 4.352 25.8921 4.22 26.7081 4.22C27.5241 4.22 28.2021 4.352 28.7421 4.616C29.2941 4.88 29.7321 5.246 30.0561 5.714C30.3921 6.17 30.6321 6.698 30.7761 7.298C30.9321 7.898 31.0161 8.528 31.0281 9.188C31.0401 9.524 31.0461 9.866 31.0461 10.214C31.0461 10.55 31.0461 10.886 31.0461 11.222C31.0461 11.558 31.0401 11.888 31.0281 12.212C31.0161 12.872 30.9321 13.502 30.7761 14.102C30.6321 14.702 30.3921 15.236 30.0561 15.704C29.7321 16.16 29.2941 16.52 28.7421 16.784C28.2021 17.048 27.5241 17.18 26.7081 17.18ZM26.7081 16.1C27.7761 16.1 28.5681 15.746 29.0841 15.038C29.6001 14.33 29.8701 13.358 29.8941 12.122C29.9061 11.774 29.9121 11.45 29.9121 11.15C29.9121 10.838 29.9121 10.532 29.9121 10.232C29.9121 9.92 29.9061 9.602 29.8941 9.278C29.8701 8.066 29.6001 7.1 29.0841 6.38C28.5681 5.66 27.7761 5.3 26.7081 5.3C25.6521 5.3 24.8601 5.66 24.3321 6.38C23.8161 7.1 23.5461 8.066 23.5221 9.278C23.5221 9.602 23.5161 9.92 23.5041 10.232C23.5041 10.532 23.5041 10.838 23.5041 11.15C23.5161 11.45 23.5221 11.774 23.5221 12.122C23.5461 13.358 23.8161 14.33 24.3321 15.038C24.8601 15.746 25.6521 16.1 26.7081 16.1ZM37.7999 17.18C36.9839 17.18 36.2999 17.048 35.7479 16.784C35.2079 16.52 34.7699 16.16 34.4339 15.704C34.1099 15.236 33.8759 14.702 33.7319 14.102C33.5879 13.502 33.5039 12.872 33.4799 12.212C33.4799 11.888 33.4739 11.558 33.4619 11.222C33.4619 10.886 33.4619 10.55 33.4619 10.214C33.4739 9.866 33.4799 9.524 33.4799 9.188C33.4919 8.528 33.5699 7.898 33.7139 7.298C33.8699 6.698 34.1099 6.17 34.4339 5.714C34.7699 5.246 35.2079 4.88 35.7479 4.616C36.2999 4.352 36.9839 4.22 37.7999 4.22C38.6159 4.22 39.2939 4.352 39.8339 4.616C40.3859 4.88 40.8239 5.246 41.1479 5.714C41.4839 6.17 41.7239 6.698 41.8679 7.298C42.0239 7.898 42.1079 8.528 42.1199 9.188C42.1319 9.524 42.1379 9.866 42.1379 10.214C42.1379 10.55 42.1379 10.886 42.1379 11.222C42.1379 11.558 42.1319 11.888 42.1199 12.212C42.1079 12.872 42.0239 13.502 41.8679 14.102C41.7239 14.702 41.4839 15.236 41.1479 15.704C40.8239 16.16 40.3859 16.52 39.8339 16.784C39.2939 17.048 38.6159 17.18 37.7999 17.18ZM37.7999 16.1C38.8679 16.1 39.6599 15.746 40.1759 15.038C40.6919 14.33 40.9619 13.358 40.9859 12.122C40.9979 11.774 41.0039 11.45 41.0039 11.15C41.0039 10.838 41.0039 10.532 41.0039 10.232C41.0039 9.92 40.9979 9.602 40.9859 9.278C40.9619 8.066 40.6919 7.1 40.1759 6.38C39.6599 5.66 38.8679 5.3 37.7999 5.3C36.7439 5.3 35.9519 5.66 35.4239 6.38C34.9079 7.1 34.6379 8.066 34.6139 9.278C34.6139 9.602 34.6079 9.92 34.5959 10.232C34.5959 10.532 34.5959 10.838 34.5959 11.15C34.6079 11.45 34.6139 11.774 34.6139 12.122C34.6379 13.358 34.9079 14.33 35.4239 15.038C35.9519 15.746 36.7439 16.1 37.7999 16.1Z" fill="black"/>
<path d="M1.332 17C1.212 17 1.116 16.964 1.044 16.892C0.972 16.82 0.936 16.724 0.936 16.604V16.334C0.936 16.214 0.966 16.1 1.026 15.992C1.098 15.872 1.218 15.734 1.386 15.578L6.048 10.916C6.504 10.496 6.852 10.13 7.092 9.818C7.332 9.506 7.494 9.2 7.578 8.9C7.674 8.588 7.722 8.246 7.722 7.874C7.722 7.07 7.488 6.44 7.02 5.984C6.564 5.528 5.91 5.3 5.058 5.3C4.518 5.3 4.05 5.408 3.654 5.624C3.258 5.84 2.946 6.146 2.718 6.542C2.49 6.926 2.34 7.376 2.268 7.892C2.256 8.036 2.202 8.144 2.106 8.216C2.01 8.276 1.926 8.306 1.854 8.306H1.494C1.374 8.306 1.278 8.276 1.206 8.216C1.146 8.144 1.116 8.06 1.116 7.964C1.128 7.556 1.212 7.136 1.368 6.704C1.524 6.26 1.758 5.852 2.07 5.48C2.394 5.108 2.802 4.808 3.294 4.58C3.786 4.34 4.374 4.22 5.058 4.22C5.97 4.22 6.702 4.394 7.254 4.742C7.818 5.09 8.226 5.54 8.478 6.092C8.73 6.644 8.856 7.238 8.856 7.874C8.856 8.366 8.784 8.822 8.64 9.242C8.496 9.65 8.28 10.052 7.992 10.448C7.704 10.832 7.338 11.228 6.894 11.636L2.682 15.92H8.712C8.844 15.92 8.946 15.956 9.018 16.028C9.09 16.1 9.126 16.202 9.126 16.334V16.604C9.126 16.724 9.09 16.82 9.018 16.892C8.946 16.964 8.844 17 8.712 17H1.332ZM15.6163 17.18C14.8003 17.18 14.1163 17.048 13.5643 16.784C13.0243 16.52 12.5863 16.16 12.2503 15.704C11.9263 15.236 11.6923 14.702 11.5483 14.102C11.4043 13.502 11.3203 12.872 11.2963 12.212C11.2963 11.888 11.2903 11.558 11.2783 11.222C11.2783 10.886 11.2783 10.55 11.2783 10.214C11.2903 9.866 11.2963 9.524 11.2963 9.188C11.3083 8.528 11.3863 7.898 11.5303 7.298C11.6863 6.698 11.9263 6.17 12.2503 5.714C12.5863 5.246 13.0243 4.88 13.5643 4.616C14.1163 4.352 14.8003 4.22 15.6163 4.22C16.4323 4.22 17.1103 4.352 17.6503 4.616C18.2023 4.88 18.6403 5.246 18.9643 5.714C19.3003 6.17 19.5403 6.698 19.6843 7.298C19.8403 7.898 19.9243 8.528 19.9363 9.188C19.9483 9.524 19.9543 9.866 19.9543 10.214C19.9543 10.55 19.9543 10.886 19.9543 11.222C19.9543 11.558 19.9483 11.888 19.9363 12.212C19.9243 12.872 19.8403 13.502 19.6843 14.102C19.5403 14.702 19.3003 15.236 18.9643 15.704C18.6403 16.16 18.2023 16.52 17.6503 16.784C17.1103 17.048 16.4323 17.18 15.6163 17.18ZM15.6163 16.1C16.6843 16.1 17.4763 15.746 17.9923 15.038C18.5083 14.33 18.7783 13.358 18.8023 12.122C18.8143 11.774 18.8203 11.45 18.8203 11.15C18.8203 10.838 18.8203 10.532 18.8203 10.232C18.8203 9.92 18.8143 9.602 18.8023 9.278C18.7783 8.066 18.5083 7.1 17.9923 6.38C17.4763 5.66 16.6843 5.3 15.6163 5.3C14.5603 5.3 13.7683 5.66 13.2403 6.38C12.7243 7.1 12.4543 8.066 12.4303 9.278C12.4303 9.602 12.4243 9.92 12.4123 10.232C12.4123 10.532 12.4123 10.838 12.4123 11.15C12.4243 11.45 12.4303 11.774 12.4303 12.122C12.4543 13.358 12.7243 14.33 13.2403 15.038C13.7683 15.746 14.5603 16.1 15.6163 16.1ZM26.7081 17.18C25.8921 17.18 25.2081 17.048 24.6561 16.784C24.1161 16.52 23.6781 16.16 23.3421 15.704C23.0181 15.236 22.7841 14.702 22.6401 14.102C22.4961 13.502 22.4121 12.872 22.3881 12.212C22.3881 11.888 22.3821 11.558 22.3701 11.222C22.3701 10.886 22.3701 10.55 22.3701 10.214C22.3821 9.866 22.3881 9.524 22.3881 9.188C22.4001 8.528 22.4781 7.898 22.6221 7.298C22.7781 6.698 23.0181 6.17 23.3421 5.714C23.6781 5.246 24.1161 4.88 24.6561 4.616C25.2081 4.352 25.8921 4.22 26.7081 4.22C27.5241 4.22 28.2021 4.352 28.7421 4.616C29.2941 4.88 29.7321 5.246 30.0561 5.714C30.3921 6.17 30.6321 6.698 30.7761 7.298C30.9321 7.898 31.0161 8.528 31.0281 9.188C31.0401 9.524 31.0461 9.866 31.0461 10.214C31.0461 10.55 31.0461 10.886 31.0461 11.222C31.0461 11.558 31.0401 11.888 31.0281 12.212C31.0161 12.872 30.9321 13.502 30.7761 14.102C30.6321 14.702 30.3921 15.236 30.0561 15.704C29.7321 16.16 29.2941 16.52 28.7421 16.784C28.2021 17.048 27.5241 17.18 26.7081 17.18ZM26.7081 16.1C27.7761 16.1 28.5681 15.746 29.0841 15.038C29.6001 14.33 29.8701 13.358 29.8941 12.122C29.9061 11.774 29.9121 11.45 29.9121 11.15C29.9121 10.838 29.9121 10.532 29.9121 10.232C29.9121 9.92 29.9061 9.602 29.8941 9.278C29.8701 8.066 29.6001 7.1 29.0841 6.38C28.5681 5.66 27.7761 5.3 26.7081 5.3C25.6521 5.3 24.8601 5.66 24.3321 6.38C23.8161 7.1 23.5461 8.066 23.5221 9.278C23.5221 9.602 23.5161 9.92 23.5041 10.232C23.5041 10.532 23.5041 10.838 23.5041 11.15C23.5161 11.45 23.5221 11.774 23.5221 12.122C23.5461 13.358 23.8161 14.33 24.3321 15.038C24.8601 15.746 25.6521 16.1 26.7081 16.1ZM37.7999 17.18C36.9839 17.18 36.2999 17.048 35.7479 16.784C35.2079 16.52 34.7699 16.16 34.4339 15.704C34.1099 15.236 33.8759 14.702 33.7319 14.102C33.5879 13.502 33.5039 12.872 33.4799 12.212C33.4799 11.888 33.4739 11.558 33.4619 11.222C33.4619 10.886 33.4619 10.55 33.4619 10.214C33.4739 9.866 33.4799 9.524 33.4799 9.188C33.4919 8.528 33.5699 7.898 33.7139 7.298C33.8699 6.698 34.1099 6.17 34.4339 5.714C34.7699 5.246 35.2079 4.88 35.7479 4.616C36.2999 4.352 36.9839 4.22 37.7999 4.22C38.6159 4.22 39.2939 4.352 39.8339 4.616C40.3859 4.88 40.8239 5.246 41.1479 5.714C41.4839 6.17 41.7239 6.698 41.8679 7.298C42.0239 7.898 42.1079 8.528 42.1199 9.188C42.1319 9.524 42.1379 9.866 42.1379 10.214C42.1379 10.55 42.1379 10.886 42.1379 11.222C42.1379 11.558 42.1319 11.888 42.1199 12.212C42.1079 12.872 42.0239 13.502 41.8679 14.102C41.7239 14.702 41.4839 15.236 41.1479 15.704C40.8239 16.16 40.3859 16.52 39.8339 16.784C39.2939 17.048 38.6159 17.18 37.7999 17.18ZM37.7999 16.1C38.8679 16.1 39.6599 15.746 40.1759 15.038C40.6919 14.33 40.9619 13.358 40.9859 12.122C40.9979 11.774 41.0039 11.45 41.0039 11.15C41.0039 10.838 41.0039 10.532 41.0039 10.232C41.0039 9.92 40.9979 9.602 40.9859 9.278C40.9619 8.066 40.6919 7.1 40.1759 6.38C39.6599 5.66 38.8679 5.3 37.7999 5.3C36.7439 5.3 35.9519 5.66 35.4239 6.38C34.9079 7.1 34.6379 8.066 34.6139 9.278C34.6139 9.602 34.6079 9.92 34.5959 10.232C34.5959 10.532 34.5959 10.838 34.5959 11.15C34.6079 11.45 34.6139 11.774 34.6139 12.122C34.6379 13.358 34.9079 14.33 35.4239 15.038C35.9519 15.746 36.7439 16.1 37.7999 16.1Z" fill="black"/>
<path d="M16.04 321.18C15.164 321.18 14.42 321.018 13.808 320.694C13.208 320.37 12.746 319.956 12.422 319.452C12.098 318.936 11.924 318.402 11.9 317.85C11.888 317.742 11.918 317.658 11.99 317.598C12.062 317.538 12.152 317.508 12.26 317.508H12.602C12.698 317.508 12.782 317.532 12.854 317.58C12.938 317.628 13.004 317.742 13.052 317.922C13.184 318.438 13.4 318.858 13.7 319.182C14.012 319.506 14.372 319.74 14.78 319.884C15.188 320.028 15.608 320.1 16.04 320.1C16.628 320.1 17.162 319.98 17.642 319.74C18.134 319.5 18.524 319.146 18.812 318.678C19.1 318.21 19.244 317.64 19.244 316.968C19.244 316.344 19.1 315.816 18.812 315.384C18.524 314.94 18.134 314.604 17.642 314.376C17.162 314.136 16.628 314.016 16.04 314.016C15.596 314.016 15.23 314.07 14.942 314.178C14.654 314.286 14.414 314.412 14.222 314.556C14.03 314.7 13.856 314.826 13.7 314.934C13.544 315.042 13.37 315.096 13.178 315.096H12.854C12.746 315.096 12.65 315.06 12.566 314.988C12.482 314.904 12.446 314.808 12.458 314.7L12.998 308.814C13.01 308.682 13.046 308.58 13.106 308.508C13.178 308.436 13.274 308.4 13.394 308.4H19.262C19.382 308.4 19.478 308.436 19.55 308.508C19.622 308.58 19.658 308.676 19.658 308.796V309.084C19.658 309.204 19.622 309.3 19.55 309.372C19.478 309.444 19.382 309.48 19.262 309.48H14.096L13.718 313.548C13.85 313.464 14.102 313.344 14.474 313.188C14.846 313.02 15.368 312.936 16.04 312.936C16.64 312.936 17.198 313.026 17.714 313.206C18.242 313.374 18.704 313.632 19.1 313.98C19.508 314.316 19.82 314.736 20.036 315.24C20.264 315.732 20.378 316.308 20.378 316.968C20.378 317.904 20.18 318.684 19.784 319.308C19.4 319.932 18.878 320.4 18.218 320.712C17.57 321.024 16.844 321.18 16.04 321.18ZM26.8448 321.18C26.0288 321.18 25.3448 321.048 24.7928 320.784C24.2528 320.52 23.8148 320.16 23.4788 319.704C23.1548 319.236 22.9208 318.702 22.7768 318.102C22.6328 317.502 22.5488 316.872 22.5248 316.212C22.5248 315.888 22.5188 315.558 22.5068 315.222C22.5068 314.886 22.5068 314.55 22.5068 314.214C22.5188 313.866 22.5248 313.524 22.5248 313.188C22.5368 312.528 22.6148 311.898 22.7588 311.298C22.9148 310.698 23.1548 310.17 23.4788 309.714C23.8148 309.246 24.2528 308.88 24.7928 308.616C25.3448 308.352 26.0288 308.22 26.8448 308.22C27.6608 308.22 28.3388 308.352 28.8788 308.616C29.4308 308.88 29.8688 309.246 30.1928 309.714C30.5288 310.17 30.7688 310.698 30.9128 311.298C31.0688 311.898 31.1528 312.528 31.1648 313.188C31.1768 313.524 31.1828 313.866 31.1828 314.214C31.1828 314.55 31.1828 314.886 31.1828 315.222C31.1828 315.558 31.1768 315.888 31.1648 316.212C31.1528 316.872 31.0688 317.502 30.9128 318.102C30.7688 318.702 30.5288 319.236 30.1928 319.704C29.8688 320.16 29.4308 320.52 28.8788 320.784C28.3388 321.048 27.6608 321.18 26.8448 321.18ZM26.8448 320.1C27.9128 320.1 28.7048 319.746 29.2208 319.038C29.7368 318.33 30.0068 317.358 30.0308 316.122C30.0428 315.774 30.0488 315.45 30.0488 315.15C30.0488 314.838 30.0488 314.532 30.0488 314.232C30.0488 313.92 30.0428 313.602 30.0308 313.278C30.0068 312.066 29.7368 311.1 29.2208 310.38C28.7048 309.66 27.9128 309.3 26.8448 309.3C25.7888 309.3 24.9968 309.66 24.4688 310.38C23.9528 311.1 23.6828 312.066 23.6588 313.278C23.6588 313.602 23.6528 313.92 23.6408 314.232C23.6408 314.532 23.6408 314.838 23.6408 315.15C23.6528 315.45 23.6588 315.774 23.6588 316.122C23.6828 317.358 23.9528 318.33 24.4688 319.038C24.9968 319.746 25.7888 320.1 26.8448 320.1ZM37.9366 321.18C37.1206 321.18 36.4366 321.048 35.8846 320.784C35.3446 320.52 34.9066 320.16 34.5706 319.704C34.2466 319.236 34.0126 318.702 33.8686 318.102C33.7246 317.502 33.6406 316.872 33.6166 316.212C33.6166 315.888 33.6106 315.558 33.5986 315.222C33.5986 314.886 33.5986 314.55 33.5986 314.214C33.6106 313.866 33.6166 313.524 33.6166 313.188C33.6286 312.528 33.7066 311.898 33.8506 311.298C34.0066 310.698 34.2466 310.17 34.5706 309.714C34.9066 309.246 35.3446 308.88 35.8846 308.616C36.4366 308.352 37.1206 308.22 37.9366 308.22C38.7526 308.22 39.4306 308.352 39.9706 308.616C40.5226 308.88 40.9606 309.246 41.2846 309.714C41.6206 310.17 41.8606 310.698 42.0046 311.298C42.1606 311.898 42.2446 312.528 42.2566 313.188C42.2686 313.524 42.2746 313.866 42.2746 314.214C42.2746 314.55 42.2746 314.886 42.2746 315.222C42.2746 315.558 42.2686 315.888 42.2566 316.212C42.2446 316.872 42.1606 317.502 42.0046 318.102C41.8606 318.702 41.6206 319.236 41.2846 319.704C40.9606 320.16 40.5226 320.52 39.9706 320.784C39.4306 321.048 38.7526 321.18 37.9366 321.18ZM37.9366 320.1C39.0046 320.1 39.7966 319.746 40.3126 319.038C40.8286 318.33 41.0986 317.358 41.1226 316.122C41.1346 315.774 41.1406 315.45 41.1406 315.15C41.1406 314.838 41.1406 314.532 41.1406 314.232C41.1406 313.92 41.1346 313.602 41.1226 313.278C41.0986 312.066 40.8286 311.1 40.3126 310.38C39.7966 309.66 39.0046 309.3 37.9366 309.3C36.8806 309.3 36.0886 309.66 35.5606 310.38C35.0446 311.1 34.7746 312.066 34.7506 313.278C34.7506 313.602 34.7446 313.92 34.7326 314.232C34.7326 314.532 34.7326 314.838 34.7326 315.15C34.7446 315.45 34.7506 315.774 34.7506 316.122C34.7746 317.358 35.0446 318.33 35.5606 319.038C36.0886 319.746 36.8806 320.1 37.9366 320.1Z" fill="black"/>
<path d="M80.8674 460.031C80.8002 460.13 80.7166 460.189 80.6167 460.209C80.5167 460.228 80.417 460.204 80.3176 460.137L71.4285 454.131L71.6828 458.191C71.6887 458.311 71.6565 458.412 71.5861 458.495C71.5224 458.568 71.4306 458.607 71.3108 458.613L70.9911 458.636C70.8712 458.642 70.7749 458.613 70.7021 458.55C70.6193 458.479 70.575 458.384 70.5691 458.264L70.2695 453.435C70.2669 453.331 70.2807 453.247 70.3111 453.18C70.3414 453.114 70.3801 453.046 70.4272 452.976L70.6186 452.693C70.6858 452.594 70.7694 452.534 70.8694 452.515C70.9693 452.495 71.069 452.519 71.1685 452.587L80.9524 459.197C81.0519 459.264 81.1113 459.348 81.1306 459.448C81.15 459.548 81.126 459.648 81.0589 459.747L80.8674 460.031ZM84.1268 455.207C84.0663 455.296 83.9861 455.35 83.8862 455.37C83.783 455.373 83.6866 455.344 83.5971 455.283C83.5474 455.25 83.5144 455.213 83.498 455.173C83.4816 455.133 83.4668 455.101 83.4536 455.078L81.7348 450.484C81.6128 450.836 81.4342 451.186 81.1991 451.534C80.796 452.131 80.3439 452.585 79.8427 452.898C79.3482 453.202 78.8361 453.391 78.3065 453.468C77.7736 453.528 77.2579 453.498 76.7594 453.379C76.2577 453.242 75.798 453.033 75.3804 452.751C74.9628 452.469 74.5972 452.12 74.2836 451.706C73.9767 451.281 73.7566 450.814 73.6233 450.304C73.4868 449.777 73.4669 449.228 73.5636 448.656C73.6671 448.074 73.9204 447.485 74.3235 446.888C74.7266 446.292 75.1753 445.842 75.6698 445.539C76.171 445.226 76.6914 445.034 77.231 444.964C77.7607 444.888 78.2764 444.918 78.7781 445.054C79.2865 445.18 79.7496 445.384 80.1672 445.666C80.5549 445.928 80.8743 446.217 81.1253 446.531C81.3763 446.846 81.5741 447.153 81.7187 447.453C81.87 447.744 81.9898 448.006 82.0783 448.239L84.3425 454.244C84.3653 454.318 84.393 454.416 84.4255 454.539C84.4548 454.646 84.4224 454.769 84.3284 454.908L84.1268 455.207ZM80.3042 450.929C80.62 450.462 80.8078 449.959 80.8678 449.42C80.9277 448.881 80.8493 448.365 80.6327 447.871C80.4161 447.377 80.0493 446.955 79.5323 446.606C79.0053 446.25 78.4723 446.064 77.9332 446.047C77.3941 446.03 76.8858 446.15 76.4083 446.407C75.9307 446.664 75.5341 447.026 75.2183 447.493C74.9026 447.96 74.7147 448.463 74.6548 449.002C74.6016 449.531 74.6833 450.042 74.8999 450.536C75.1165 451.03 75.4883 451.455 76.0153 451.811C76.5323 452.161 77.0604 452.344 77.5994 452.36C78.1385 452.377 78.6435 452.262 79.1143 452.015C79.5918 451.759 79.9885 451.397 80.3042 450.929ZM90.839 445.594C90.3486 446.32 89.7978 446.846 89.1867 447.171C88.5824 447.487 87.9807 447.638 87.3817 447.624C86.7727 447.604 86.2328 447.449 85.762 447.16C85.6658 447.109 85.613 447.038 85.6036 446.944C85.5942 446.851 85.6197 446.76 85.6802 446.67L85.8717 446.387C85.9254 446.307 85.9923 446.251 86.0724 446.218C86.1592 446.176 86.2906 446.185 86.4666 446.246C86.9681 446.425 87.437 446.481 87.8734 446.414C88.3166 446.337 88.712 446.17 89.0597 445.912C89.4075 445.655 89.7023 445.347 89.9441 444.989C90.2733 444.502 90.4729 443.992 90.5427 443.46C90.6193 442.918 90.5444 442.397 90.3178 441.896C90.0913 441.396 89.6996 440.957 89.1428 440.581C88.6257 440.232 88.1076 440.055 87.5884 440.052C87.0593 440.042 86.5626 440.177 86.0982 440.457C85.6306 440.721 85.2322 441.096 84.903 441.583C84.6544 441.951 84.4943 442.285 84.4225 442.584C84.3508 442.883 84.3208 443.152 84.3326 443.392C84.3444 443.632 84.3514 443.846 84.3536 444.036C84.3557 444.226 84.3031 444.4 84.1956 444.559L84.0142 444.828C83.9537 444.917 83.8701 444.977 83.7635 445.006C83.6468 445.028 83.5471 445.005 83.4644 444.934L78.8896 441.191C78.7869 441.108 78.7226 441.021 78.6965 440.931C78.6772 440.831 78.7011 440.731 78.7683 440.631L82.0535 435.769C82.1207 435.67 82.2043 435.61 82.3042 435.591C82.4042 435.572 82.5039 435.596 82.6033 435.663L82.842 435.824C82.9414 435.891 83.0008 435.975 83.0201 436.075C83.0395 436.175 83.0156 436.274 82.9484 436.374L80.0562 440.654L83.2152 443.245C83.2195 443.089 83.2612 442.813 83.3402 442.417C83.4093 442.015 83.6319 441.535 84.0081 440.979C84.344 440.481 84.731 440.069 85.169 439.743C85.6038 439.399 86.0763 439.161 86.5863 439.028C87.0932 438.878 87.6158 438.854 88.1544 438.957C88.6897 439.044 89.2308 439.272 89.7777 439.641C90.5532 440.165 91.0887 440.766 91.384 441.444C91.6861 442.111 91.7816 442.806 91.6706 443.527C91.5663 444.239 91.2891 444.928 90.839 445.594ZM96.8881 436.641C96.4313 437.317 95.939 437.81 95.4112 438.12C94.8901 438.419 94.3466 438.581 93.7807 438.604C93.2115 438.61 92.638 438.505 92.0602 438.289C91.4825 438.072 90.9134 437.789 90.3531 437.439C90.0847 437.258 89.8079 437.078 89.5227 436.9C89.2443 436.712 88.9659 436.524 88.6875 436.336C88.4059 436.131 88.1259 435.934 87.8475 435.746C87.3073 435.367 86.829 434.95 86.4124 434.494C86.0026 434.029 85.6995 433.535 85.5031 433.011C85.3034 432.471 85.2453 431.903 85.3289 431.307C85.4192 430.702 85.6928 430.062 86.1496 429.385C86.6065 428.709 87.0954 428.221 87.6165 427.922C88.1443 427.612 88.6928 427.454 89.2619 427.448C89.8279 427.425 90.3997 427.521 90.9775 427.738C91.562 427.945 92.131 428.228 92.6846 428.587C92.9698 428.766 93.2565 428.952 93.5448 429.147C93.8232 429.335 94.1017 429.523 94.3801 429.711C94.6585 429.899 94.9285 430.089 95.1903 430.28C95.7304 430.66 96.2054 431.082 96.6152 431.547C97.0318 432.003 97.3399 432.5 97.5395 433.041C97.736 433.565 97.7891 434.129 97.6988 434.734C97.6152 435.329 97.345 435.965 96.8881 436.641ZM95.9933 436.037C96.5912 435.152 96.7413 434.297 96.4435 433.473C96.1458 432.649 95.4915 431.881 94.4808 431.17C94.1992 430.965 93.9341 430.778 93.6855 430.61C93.427 430.436 93.1735 430.264 92.9249 430.097C92.6664 429.922 92.3995 429.749 92.1243 429.577C91.1066 428.919 90.1551 428.602 89.2696 428.626C88.3841 428.651 87.6424 429.105 87.0445 429.99C86.4533 430.865 86.3082 431.723 86.6092 432.564C86.9169 433.394 87.5661 434.159 88.5569 434.857C88.8254 435.039 89.0855 435.222 89.3373 435.406C89.5859 435.574 89.8394 435.745 90.098 435.92C90.3533 436.078 90.6251 436.255 90.9134 436.449C91.951 437.121 92.9076 437.442 93.7831 437.411C94.6653 437.37 95.4021 436.912 95.9933 436.037Z" fill="black"/>
<path d="M238.832 463.043C238.765 463.143 238.681 463.202 238.581 463.221C238.481 463.241 238.381 463.217 238.282 463.15L238.058 462.999C237.959 462.931 237.881 462.843 237.825 462.732C237.766 462.606 237.719 462.429 237.684 462.202L236.431 455.729C236.338 455.116 236.23 454.623 236.106 454.25C235.981 453.876 235.819 453.571 235.617 453.333C235.412 453.079 235.156 452.848 234.848 452.639C234.181 452.189 233.528 452.03 232.888 452.163C232.255 452.285 231.7 452.7 231.223 453.406C230.921 453.853 230.748 454.301 230.706 454.75C230.663 455.199 230.742 455.629 230.942 456.04C231.133 456.444 231.422 456.82 231.809 457.169C231.922 457.259 231.981 457.364 231.987 457.484C231.983 457.597 231.961 457.684 231.92 457.743L231.719 458.042C231.652 458.141 231.573 458.204 231.483 458.23C231.39 458.239 231.303 458.217 231.224 458.163C230.892 457.925 230.591 457.62 230.321 457.249C230.04 456.871 229.833 456.449 229.7 455.982C229.573 455.505 229.553 454.999 229.639 454.464C229.716 453.922 229.945 453.368 230.328 452.801C230.839 452.045 231.393 451.536 231.99 451.274C232.594 451.001 233.196 450.915 233.794 451.015C234.393 451.115 234.955 451.344 235.482 451.7C235.89 451.975 236.228 452.29 236.495 452.645C236.752 452.992 236.965 453.396 237.131 453.857C237.288 454.31 237.412 454.835 237.501 455.432L238.693 461.32L242.069 456.324C242.143 456.214 242.229 456.15 242.329 456.131C242.429 456.111 242.534 456.138 242.643 456.212L242.867 456.364C242.967 456.431 243.026 456.514 243.045 456.614C243.065 456.714 243.037 456.819 242.963 456.928L238.832 463.043ZM246.978 451.308C246.521 451.984 246.029 452.477 245.501 452.787C244.98 453.086 244.437 453.248 243.871 453.271C243.301 453.277 242.728 453.172 242.15 452.956C241.572 452.739 241.003 452.456 240.443 452.106C240.175 451.925 239.898 451.745 239.613 451.567C239.334 451.379 239.056 451.191 238.777 451.003C238.496 450.798 238.216 450.601 237.937 450.413C237.397 450.034 236.919 449.617 236.502 449.161C236.093 448.696 235.789 448.202 235.593 447.678C235.393 447.138 235.335 446.57 235.419 445.974C235.509 445.369 235.783 444.729 236.24 444.053C236.696 443.376 237.185 442.888 237.706 442.589C238.234 442.279 238.783 442.121 239.352 442.115C239.918 442.092 240.49 442.188 241.067 442.405C241.652 442.612 242.221 442.895 242.775 443.254C243.06 443.433 243.346 443.619 243.635 443.814C243.913 444.002 244.192 444.19 244.47 444.378C244.748 444.566 245.018 444.756 245.28 444.947C245.82 445.327 246.295 445.749 246.705 446.214C247.122 446.67 247.43 447.167 247.629 447.708C247.826 448.232 247.879 448.796 247.789 449.401C247.705 449.996 247.435 450.632 246.978 451.308ZM246.083 450.704C246.681 449.819 246.831 448.964 246.533 448.14C246.236 447.316 245.581 446.548 244.571 445.837C244.289 445.632 244.024 445.445 243.775 445.278C243.517 445.103 243.263 444.932 243.015 444.764C242.756 444.589 242.489 444.416 242.214 444.244C241.197 443.586 240.245 443.269 239.359 443.293C238.474 443.318 237.732 443.772 237.134 444.657C236.543 445.532 236.398 446.39 236.699 447.231C237.007 448.061 237.656 448.826 238.647 449.524C238.915 449.706 239.175 449.889 239.427 450.073C239.676 450.241 239.929 450.412 240.188 450.587C240.443 450.745 240.715 450.922 241.003 451.116C242.041 451.788 242.997 452.109 243.873 452.078C244.755 452.037 245.492 451.579 246.083 450.704ZM250.681 445.507C250.613 445.606 250.53 445.666 250.43 445.685C250.33 445.704 250.23 445.681 250.131 445.613L249.907 445.462C249.808 445.395 249.73 445.306 249.674 445.196C249.615 445.069 249.568 444.893 249.533 444.666L248.28 438.193C248.187 437.58 248.079 437.087 247.954 436.713C247.83 436.34 247.667 436.034 247.466 435.797C247.261 435.543 247.005 435.311 246.696 435.103C246.03 434.653 245.377 434.494 244.737 434.627C244.104 434.749 243.549 435.163 243.072 435.869C242.77 436.317 242.597 436.765 242.555 437.214C242.512 437.663 242.591 438.093 242.791 438.504C242.982 438.907 243.271 439.284 243.658 439.632C243.77 439.723 243.83 439.828 243.836 439.948C243.832 440.061 243.809 440.147 243.769 440.207L243.568 440.505C243.5 440.605 243.422 440.667 243.332 440.694C243.238 440.703 243.152 440.681 243.073 440.627C242.741 440.389 242.44 440.084 242.17 439.713C241.889 439.335 241.682 438.913 241.548 438.446C241.422 437.969 241.401 437.463 241.488 436.928C241.565 436.386 241.794 435.831 242.177 435.265C242.688 434.509 243.242 434 243.839 433.737C244.443 433.465 245.045 433.379 245.643 433.479C246.242 433.579 246.804 433.807 247.331 434.163C247.739 434.439 248.076 434.754 248.344 435.108C248.601 435.456 248.813 435.86 248.98 436.32C249.137 436.774 249.26 437.299 249.35 437.895L250.542 443.784L253.917 438.787C253.991 438.678 254.078 438.614 254.178 438.594C254.278 438.575 254.383 438.602 254.492 438.676L254.716 438.827C254.815 438.894 254.875 438.978 254.894 439.078C254.913 439.178 254.886 439.283 254.812 439.392L250.681 445.507ZM258.827 433.772C258.37 434.448 257.878 434.941 257.35 435.25C256.829 435.55 256.285 435.711 255.719 435.735C255.15 435.741 254.577 435.636 253.999 435.419C253.421 435.203 252.852 434.92 252.292 434.57C252.023 434.389 251.747 434.209 251.461 434.031C251.183 433.843 250.905 433.654 250.626 433.466C250.345 433.262 250.065 433.065 249.786 432.877C249.246 432.498 248.768 432.08 248.351 431.625C247.941 431.16 247.638 430.665 247.442 430.142C247.242 429.601 247.184 429.033 247.268 428.438C247.358 427.833 247.631 427.192 248.088 426.516C248.545 425.84 249.034 425.352 249.555 425.053C250.083 424.743 250.631 424.585 251.201 424.578C251.767 424.555 252.338 424.652 252.916 424.869C253.501 425.075 254.07 425.358 254.623 425.718C254.908 425.896 255.195 426.083 255.484 426.278C255.762 426.466 256.04 426.654 256.319 426.842C256.597 427.03 256.867 427.22 257.129 427.411C257.669 427.79 258.144 428.213 258.554 428.678C258.97 429.133 259.279 429.631 259.478 430.171C259.675 430.695 259.728 431.26 259.637 431.865C259.554 432.46 259.284 433.096 258.827 433.772ZM257.932 433.167C258.53 432.282 258.68 431.428 258.382 430.604C258.084 429.78 257.43 429.012 256.42 428.3C256.138 428.095 255.873 427.909 255.624 427.741C255.366 427.566 255.112 427.395 254.864 427.227C254.605 427.053 254.338 426.879 254.063 426.708C253.045 426.049 252.094 425.732 251.208 425.757C250.323 425.781 249.581 426.236 248.983 427.121C248.392 427.996 248.247 428.854 248.548 429.694C248.856 430.525 249.505 431.289 250.496 431.988C250.764 432.169 251.024 432.352 251.276 432.537C251.525 432.705 251.778 432.876 252.037 433.051C252.292 433.209 252.564 433.385 252.852 433.58C253.89 434.252 254.846 434.573 255.722 434.541C256.604 434.5 257.341 434.042 257.932 433.167Z" fill="black"/>
<path d="M401.832 463.358C401.765 463.457 401.681 463.516 401.581 463.536C401.481 463.555 401.381 463.531 401.282 463.464L401.058 463.313C400.959 463.246 400.881 463.157 400.825 463.047C400.766 462.92 400.719 462.743 400.684 462.517L399.431 456.044C399.338 455.431 399.23 454.938 399.106 454.564C398.981 454.19 398.819 453.885 398.617 453.647C398.412 453.393 398.156 453.162 397.848 452.954C397.181 452.504 396.528 452.345 395.888 452.477C395.255 452.6 394.7 453.014 394.223 453.72C393.921 454.167 393.748 454.616 393.706 455.065C393.663 455.514 393.742 455.944 393.942 456.354C394.133 456.758 394.422 457.134 394.809 457.483C394.922 457.573 394.981 457.679 394.987 457.798C394.983 457.912 394.961 457.998 394.92 458.058L394.719 458.356C394.652 458.455 394.573 458.518 394.483 458.544C394.39 458.554 394.303 458.531 394.224 458.478C393.892 458.239 393.591 457.935 393.321 457.563C393.04 457.186 392.833 456.763 392.7 456.297C392.573 455.82 392.553 455.314 392.639 454.778C392.716 454.236 392.945 453.682 393.328 453.115C393.839 452.36 394.393 451.851 394.99 451.588C395.594 451.315 396.196 451.229 396.794 451.33C397.393 451.43 397.955 451.658 398.482 452.014C398.89 452.289 399.228 452.604 399.495 452.959C399.752 453.307 399.965 453.711 400.131 454.171C400.288 454.625 400.412 455.15 400.501 455.746L401.693 461.634L405.069 456.638C405.143 456.529 405.229 456.464 405.329 456.445C405.429 456.426 405.534 456.453 405.643 456.527L405.867 456.678C405.967 456.745 406.026 456.829 406.045 456.929C406.065 457.029 406.037 457.133 405.963 457.243L401.832 463.358ZM409.978 451.623C409.521 452.299 409.029 452.792 408.501 453.101C407.98 453.401 407.437 453.562 406.871 453.585C406.301 453.592 405.728 453.487 405.15 453.27C404.572 453.053 404.003 452.77 403.443 452.421C403.175 452.239 402.898 452.06 402.613 451.881C402.334 451.693 402.056 451.505 401.777 451.317C401.496 451.112 401.216 450.916 400.937 450.728C400.397 450.348 399.919 449.931 399.502 449.476C399.093 449.011 398.789 448.516 398.593 447.992C398.393 447.452 398.335 446.884 398.419 446.289C398.509 445.684 398.783 445.043 399.24 444.367C399.696 443.691 400.185 443.203 400.706 442.903C401.234 442.594 401.783 442.436 402.352 442.429C402.918 442.406 403.49 442.503 404.067 442.719C404.652 442.926 405.221 443.209 405.775 443.569C406.06 443.747 406.346 443.933 406.635 444.128C406.913 444.316 407.192 444.504 407.47 444.693C407.748 444.881 408.018 445.07 408.28 445.262C408.82 445.641 409.295 446.063 409.705 446.529C410.122 446.984 410.43 447.482 410.629 448.022C410.826 448.546 410.879 449.11 410.789 449.716C410.705 450.311 410.435 450.946 409.978 451.623ZM409.083 451.018C409.681 450.133 409.831 449.279 409.533 448.455C409.236 447.631 408.581 446.863 407.571 446.151C407.289 445.946 407.024 445.76 406.775 445.592C406.517 445.417 406.263 445.246 406.015 445.078C405.756 444.903 405.489 444.73 405.214 444.559C404.197 443.9 403.245 443.583 402.359 443.607C401.474 443.632 400.732 444.087 400.134 444.971C399.543 445.846 399.398 446.704 399.699 447.545C400.007 448.376 400.656 449.14 401.647 449.838C401.915 450.02 402.175 450.203 402.427 450.387C402.676 450.555 402.929 450.727 403.188 450.901C403.443 451.059 403.715 451.236 404.003 451.431C405.041 452.103 405.997 452.423 406.873 452.392C407.755 452.351 408.492 451.893 409.083 451.018ZM415.906 442.85C415.415 443.575 414.864 444.101 414.253 444.427C413.649 444.743 413.047 444.894 412.448 444.88C411.839 444.86 411.299 444.705 410.829 444.416C410.732 444.365 410.68 444.293 410.67 444.2C410.661 444.107 410.686 444.015 410.747 443.926L410.938 443.643C410.992 443.563 411.059 443.507 411.139 443.474C411.226 443.431 411.357 443.44 411.533 443.501C412.035 443.681 412.504 443.737 412.94 443.67C413.383 443.593 413.779 443.426 414.126 443.168C414.474 442.911 414.769 442.603 415.011 442.245C415.34 441.758 415.54 441.248 415.609 440.716C415.686 440.174 415.611 439.653 415.384 439.152C415.158 438.651 414.766 438.213 414.209 437.837C413.692 437.487 413.174 437.311 412.655 437.308C412.126 437.298 411.629 437.433 411.165 437.713C410.697 437.976 410.299 438.352 409.97 438.839C409.721 439.207 409.561 439.54 409.489 439.839C409.417 440.138 409.387 440.408 409.399 440.648C409.411 440.887 409.418 441.102 409.42 441.292C409.422 441.481 409.37 441.656 409.262 441.815L409.081 442.083C409.02 442.173 408.937 442.232 408.83 442.262C408.713 442.284 408.614 442.26 408.531 442.19L403.956 438.447C403.854 438.363 403.789 438.276 403.763 438.186C403.744 438.086 403.768 437.987 403.835 437.887L407.12 433.025C407.187 432.926 407.271 432.866 407.371 432.847C407.471 432.827 407.571 432.851 407.67 432.919L407.909 433.08C408.008 433.147 408.067 433.231 408.087 433.33C408.106 433.43 408.082 433.53 408.015 433.63L405.123 437.91L408.282 440.501C408.286 440.344 408.328 440.068 408.407 439.673C408.476 439.271 408.699 438.791 409.075 438.234C409.411 437.737 409.798 437.325 410.236 436.998C410.671 436.655 411.143 436.416 411.653 436.283C412.16 436.133 412.682 436.11 413.221 436.213C413.756 436.3 414.297 436.528 414.844 436.897C415.62 437.421 416.155 438.022 416.451 438.699C416.753 439.367 416.848 440.061 416.737 440.783C416.633 441.495 416.356 442.183 415.906 442.85ZM421.955 433.897C421.498 434.573 421.006 435.066 420.478 435.375C419.957 435.675 419.413 435.836 418.847 435.86C418.278 435.866 417.705 435.761 417.127 435.544C416.549 435.328 415.98 435.045 415.42 434.695C415.151 434.514 414.875 434.334 414.589 434.156C414.311 433.968 414.033 433.779 413.754 433.591C413.473 433.387 413.193 433.19 412.914 433.002C412.374 432.623 411.896 432.205 411.479 431.75C411.069 431.285 410.766 430.79 410.57 430.267C410.37 429.726 410.312 429.158 410.396 428.563C410.486 427.958 410.759 427.317 411.216 426.641C411.673 425.965 412.162 425.477 412.683 425.178C413.211 424.868 413.759 424.71 414.329 424.703C414.895 424.68 415.466 424.777 416.044 424.994C416.629 425.2 417.198 425.483 417.751 425.843C418.036 426.021 418.323 426.208 418.611 426.403C418.89 426.591 419.168 426.779 419.447 426.967C419.725 427.155 419.995 427.345 420.257 427.536C420.797 427.915 421.272 428.338 421.682 428.803C422.098 429.258 422.407 429.756 422.606 430.296C422.803 430.82 422.856 431.385 422.765 431.99C422.682 432.585 422.412 433.221 421.955 433.897ZM421.06 433.292C421.658 432.407 421.808 431.553 421.51 430.729C421.212 429.905 420.558 429.137 419.547 428.425C419.266 428.22 419.001 428.034 418.752 427.866C418.494 427.691 418.24 427.52 417.992 427.352C417.733 427.178 417.466 427.004 417.191 426.833C416.173 426.174 415.222 425.857 414.336 425.882C413.451 425.906 412.709 426.361 412.111 427.246C411.52 428.121 411.375 428.979 411.676 429.819C411.984 430.65 412.633 431.414 413.624 432.113C413.892 432.294 414.152 432.477 414.404 432.662C414.653 432.83 414.906 433.001 415.165 433.176C415.42 433.334 415.692 433.51 415.98 433.705C417.018 434.377 417.974 434.698 418.85 434.666C419.732 434.625 420.469 434.167 421.06 433.292Z" fill="black"/>
<path d="M37.544 400.18C36.728 400.18 36.044 400.048 35.492 399.784C34.952 399.52 34.514 399.16 34.178 398.704C33.854 398.236 33.62 397.702 33.476 397.102C33.332 396.502 33.248 395.872 33.224 395.212C33.224 394.888 33.218 394.558 33.206 394.222C33.206 393.886 33.206 393.55 33.206 393.214C33.218 392.866 33.224 392.524 33.224 392.188C33.236 391.528 33.314 390.898 33.458 390.298C33.614 389.698 33.854 389.17 34.178 388.714C34.514 388.246 34.952 387.88 35.492 387.616C36.044 387.352 36.728 387.22 37.544 387.22C38.36 387.22 39.038 387.352 39.578 387.616C40.13 387.88 40.568 388.246 40.892 388.714C41.228 389.17 41.468 389.698 41.612 390.298C41.768 390.898 41.852 391.528 41.864 392.188C41.876 392.524 41.882 392.866 41.882 393.214C41.882 393.55 41.882 393.886 41.882 394.222C41.882 394.558 41.876 394.888 41.864 395.212C41.852 395.872 41.768 396.502 41.612 397.102C41.468 397.702 41.228 398.236 40.892 398.704C40.568 399.16 40.13 399.52 39.578 399.784C39.038 400.048 38.36 400.18 37.544 400.18ZM37.544 399.1C38.612 399.1 39.404 398.746 39.92 398.038C40.436 397.33 40.706 396.358 40.73 395.122C40.742 394.774 40.748 394.45 40.748 394.15C40.748 393.838 40.748 393.532 40.748 393.232C40.748 392.92 40.742 392.602 40.73 392.278C40.706 391.066 40.436 390.1 39.92 389.38C39.404 388.66 38.612 388.3 37.544 388.3C36.488 388.3 35.696 388.66 35.168 389.38C34.652 390.1 34.382 391.066 34.358 392.278C34.358 392.602 34.352 392.92 34.34 393.232C34.34 393.532 34.34 393.838 34.34 394.15C34.352 394.45 34.358 394.774 34.358 395.122C34.382 396.358 34.652 397.33 35.168 398.038C35.696 398.746 36.488 399.1 37.544 399.1Z" fill="black"/>
<path d="M7.968 208C7.848 208 7.752 207.964 7.68 207.892C7.608 207.82 7.572 207.724 7.572 207.604V196.876L4.35 199.36C4.254 199.432 4.152 199.462 4.044 199.45C3.948 199.438 3.864 199.384 3.792 199.288L3.594 199.036C3.522 198.94 3.492 198.844 3.504 198.748C3.516 198.64 3.57 198.55 3.666 198.478L7.5 195.526C7.584 195.466 7.662 195.43 7.734 195.418C7.806 195.406 7.884 195.4 7.968 195.4H8.31C8.43 195.4 8.526 195.436 8.598 195.508C8.67 195.58 8.706 195.676 8.706 195.796V207.604C8.706 207.724 8.67 207.82 8.598 207.892C8.526 207.964 8.43 208 8.31 208H7.968ZM15.7159 208.18C14.8999 208.18 14.2159 208.048 13.6639 207.784C13.1239 207.52 12.6859 207.16 12.3499 206.704C12.0259 206.236 11.7919 205.702 11.6479 205.102C11.5039 204.502 11.4199 203.872 11.3959 203.212C11.3959 202.888 11.3899 202.558 11.3779 202.222C11.3779 201.886 11.3779 201.55 11.3779 201.214C11.3899 200.866 11.3959 200.524 11.3959 200.188C11.4079 199.528 11.4859 198.898 11.6299 198.298C11.7859 197.698 12.0259 197.17 12.3499 196.714C12.6859 196.246 13.1239 195.88 13.6639 195.616C14.2159 195.352 14.8999 195.22 15.7159 195.22C16.5319 195.22 17.2099 195.352 17.7499 195.616C18.3019 195.88 18.7399 196.246 19.0639 196.714C19.3999 197.17 19.6399 197.698 19.7839 198.298C19.9399 198.898 20.0239 199.528 20.0359 200.188C20.0479 200.524 20.0539 200.866 20.0539 201.214C20.0539 201.55 20.0539 201.886 20.0539 202.222C20.0539 202.558 20.0479 202.888 20.0359 203.212C20.0239 203.872 19.9399 204.502 19.7839 205.102C19.6399 205.702 19.3999 206.236 19.0639 206.704C18.7399 207.16 18.3019 207.52 17.7499 207.784C17.2099 208.048 16.5319 208.18 15.7159 208.18ZM15.7159 207.1C16.7839 207.1 17.5759 206.746 18.0919 206.038C18.6079 205.33 18.8779 204.358 18.9019 203.122C18.9139 202.774 18.9199 202.45 18.9199 202.15C18.9199 201.838 18.9199 201.532 18.9199 201.232C18.9199 200.92 18.9139 200.602 18.9019 200.278C18.8779 199.066 18.6079 198.1 18.0919 197.38C17.5759 196.66 16.7839 196.3 15.7159 196.3C14.6599 196.3 13.8679 196.66 13.3399 197.38C12.8239 198.1 12.5539 199.066 12.5299 200.278C12.5299 200.602 12.5239 200.92 12.5119 201.232C12.5119 201.532 12.5119 201.838 12.5119 202.15C12.5239 202.45 12.5299 202.774 12.5299 203.122C12.5539 204.358 12.8239 205.33 13.3399 206.038C13.8679 206.746 14.6599 207.1 15.7159 207.1ZM26.8077 208.18C25.9917 208.18 25.3077 208.048 24.7557 207.784C24.2157 207.52 23.7777 207.16 23.4417 206.704C23.1177 206.236 22.8837 205.702 22.7397 205.102C22.5957 204.502 22.5117 203.872 22.4877 203.212C22.4877 202.888 22.4817 202.558 22.4697 202.222C22.4697 201.886 22.4697 201.55 22.4697 201.214C22.4817 200.866 22.4877 200.524 22.4877 200.188C22.4997 199.528 22.5777 198.898 22.7217 198.298C22.8777 197.698 23.1177 197.17 23.4417 196.714C23.7777 196.246 24.2157 195.88 24.7557 195.616C25.3077 195.352 25.9917 195.22 26.8077 195.22C27.6237 195.22 28.3017 195.352 28.8417 195.616C29.3937 195.88 29.8317 196.246 30.1557 196.714C30.4917 197.17 30.7317 197.698 30.8757 198.298C31.0317 198.898 31.1157 199.528 31.1277 200.188C31.1397 200.524 31.1457 200.866 31.1457 201.214C31.1457 201.55 31.1457 201.886 31.1457 202.222C31.1457 202.558 31.1397 202.888 31.1277 203.212C31.1157 203.872 31.0317 204.502 30.8757 205.102C30.7317 205.702 30.4917 206.236 30.1557 206.704C29.8317 207.16 29.3937 207.52 28.8417 207.784C28.3017 208.048 27.6237 208.18 26.8077 208.18ZM26.8077 207.1C27.8757 207.1 28.6677 206.746 29.1837 206.038C29.6997 205.33 29.9697 204.358 29.9937 203.122C30.0057 202.774 30.0117 202.45 30.0117 202.15C30.0117 201.838 30.0117 201.532 30.0117 201.232C30.0117 200.92 30.0057 200.602 29.9937 200.278C29.9697 199.066 29.6997 198.1 29.1837 197.38C28.6677 196.66 27.8757 196.3 26.8077 196.3C25.7517 196.3 24.9597 196.66 24.4317 197.38C23.9157 198.1 23.6457 199.066 23.6217 200.278C23.6217 200.602 23.6157 200.92 23.6037 201.232C23.6037 201.532 23.6037 201.838 23.6037 202.15C23.6157 202.45 23.6217 202.774 23.6217 203.122C23.6457 204.358 23.9157 205.33 24.4317 206.038C24.9597 206.746 25.7517 207.1 26.8077 207.1ZM37.8995 208.18C37.0835 208.18 36.3995 208.048 35.8475 207.784C35.3075 207.52 34.8695 207.16 34.5335 206.704C34.2095 206.236 33.9755 205.702 33.8315 205.102C33.6875 204.502 33.6035 203.872 33.5795 203.212C33.5795 202.888 33.5735 202.558 33.5615 202.222C33.5615 201.886 33.5615 201.55 33.5615 201.214C33.5735 200.866 33.5795 200.524 33.5795 200.188C33.5915 199.528 33.6695 198.898 33.8135 198.298C33.9695 197.698 34.2095 197.17 34.5335 196.714C34.8695 196.246 35.3075 195.88 35.8475 195.616C36.3995 195.352 37.0835 195.22 37.8995 195.22C38.7155 195.22 39.3935 195.352 39.9335 195.616C40.4855 195.88 40.9235 196.246 41.2475 196.714C41.5835 197.17 41.8235 197.698 41.9675 198.298C42.1235 198.898 42.2075 199.528 42.2195 200.188C42.2315 200.524 42.2375 200.866 42.2375 201.214C42.2375 201.55 42.2375 201.886 42.2375 202.222C42.2375 202.558 42.2315 202.888 42.2195 203.212C42.2075 203.872 42.1235 204.502 41.9675 205.102C41.8235 205.702 41.5835 206.236 41.2475 206.704C40.9235 207.16 40.4855 207.52 39.9335 207.784C39.3935 208.048 38.7155 208.18 37.8995 208.18ZM37.8995 207.1C38.9675 207.1 39.7595 206.746 40.2755 206.038C40.7915 205.33 41.0615 204.358 41.0855 203.122C41.0975 202.774 41.1035 202.45 41.1035 202.15C41.1035 201.838 41.1035 201.532 41.1035 201.232C41.1035 200.92 41.0975 200.602 41.0855 200.278C41.0615 199.066 40.7915 198.1 40.2755 197.38C39.7595 196.66 38.9675 196.3 37.8995 196.3C36.8435 196.3 36.0515 196.66 35.5235 197.38C35.0075 198.1 34.7375 199.066 34.7135 200.278C34.7135 200.602 34.7075 200.92 34.6955 201.232C34.6955 201.532 34.6955 201.838 34.6955 202.15C34.7075 202.45 34.7135 202.774 34.7135 203.122C34.7375 204.358 35.0075 205.33 35.5235 206.038C36.0515 206.746 36.8435 207.1 37.8995 207.1Z" fill="black"/>
<path d="M8.968 112C8.848 112 8.752 111.964 8.68 111.892C8.608 111.82 8.572 111.724 8.572 111.604V100.876L5.35 103.36C5.254 103.432 5.152 103.462 5.044 103.45C4.948 103.438 4.864 103.384 4.792 103.288L4.594 103.036C4.522 102.94 4.492 102.844 4.504 102.748C4.516 102.64 4.57 102.55 4.666 102.478L8.5 99.526C8.584 99.466 8.662 99.43 8.734 99.418C8.806 99.406 8.884 99.4 8.968 99.4H9.31C9.43 99.4 9.526 99.436 9.598 99.508C9.67 99.58 9.706 99.676 9.706 99.796V111.604C9.706 111.724 9.67 111.82 9.598 111.892C9.526 111.964 9.43 112 9.31 112H8.968ZM16.2119 112.18C15.3359 112.18 14.5919 112.018 13.9799 111.694C13.3799 111.37 12.9179 110.956 12.5939 110.452C12.2699 109.936 12.0959 109.402 12.0719 108.85C12.0599 108.742 12.0899 108.658 12.1619 108.598C12.2339 108.538 12.3239 108.508 12.4319 108.508H12.7739C12.8699 108.508 12.9539 108.532 13.0259 108.58C13.1099 108.628 13.1759 108.742 13.2239 108.922C13.3559 109.438 13.5719 109.858 13.8719 110.182C14.1839 110.506 14.5439 110.74 14.9519 110.884C15.3599 111.028 15.7799 111.1 16.2119 111.1C16.7999 111.1 17.3339 110.98 17.8139 110.74C18.3059 110.5 18.6959 110.146 18.9839 109.678C19.2719 109.21 19.4159 108.64 19.4159 107.968C19.4159 107.344 19.2719 106.816 18.9839 106.384C18.6959 105.94 18.3059 105.604 17.8139 105.376C17.3339 105.136 16.7999 105.016 16.2119 105.016C15.7679 105.016 15.4019 105.07 15.1139 105.178C14.8259 105.286 14.5859 105.412 14.3939 105.556C14.2019 105.7 14.0279 105.826 13.8719 105.934C13.7159 106.042 13.5419 106.096 13.3499 106.096H13.0259C12.9179 106.096 12.8219 106.06 12.7379 105.988C12.6539 105.904 12.6179 105.808 12.6299 105.7L13.1699 99.814C13.1819 99.682 13.2179 99.58 13.2779 99.508C13.3499 99.436 13.4459 99.4 13.5659 99.4H19.4339C19.5539 99.4 19.6499 99.436 19.7219 99.508C19.7939 99.58 19.8299 99.676 19.8299 99.796V100.084C19.8299 100.204 19.7939 100.3 19.7219 100.372C19.6499 100.444 19.5539 100.48 19.4339 100.48H14.2679L13.8899 104.548C14.0219 104.464 14.2739 104.344 14.6459 104.188C15.0179 104.02 15.5399 103.936 16.2119 103.936C16.8119 103.936 17.3699 104.026 17.8859 104.206C18.4139 104.374 18.8759 104.632 19.2719 104.98C19.6799 105.316 19.9919 105.736 20.2079 106.24C20.4359 106.732 20.5499 107.308 20.5499 107.968C20.5499 108.904 20.3519 109.684 19.9559 110.308C19.5719 110.932 19.0499 111.4 18.3899 111.712C17.7419 112.024 17.0159 112.18 16.2119 112.18ZM27.0167 112.18C26.2007 112.18 25.5167 112.048 24.9647 111.784C24.4247 111.52 23.9867 111.16 23.6507 110.704C23.3267 110.236 23.0927 109.702 22.9487 109.102C22.8047 108.502 22.7207 107.872 22.6967 107.212C22.6967 106.888 22.6907 106.558 22.6787 106.222C22.6787 105.886 22.6787 105.55 22.6787 105.214C22.6907 104.866 22.6967 104.524 22.6967 104.188C22.7087 103.528 22.7867 102.898 22.9307 102.298C23.0867 101.698 23.3267 101.17 23.6507 100.714C23.9867 100.246 24.4247 99.88 24.9647 99.616C25.5167 99.352 26.2007 99.22 27.0167 99.22C27.8327 99.22 28.5107 99.352 29.0507 99.616C29.6027 99.88 30.0407 100.246 30.3647 100.714C30.7007 101.17 30.9407 101.698 31.0847 102.298C31.2407 102.898 31.3247 103.528 31.3367 104.188C31.3487 104.524 31.3547 104.866 31.3547 105.214C31.3547 105.55 31.3547 105.886 31.3547 106.222C31.3547 106.558 31.3487 106.888 31.3367 107.212C31.3247 107.872 31.2407 108.502 31.0847 109.102C30.9407 109.702 30.7007 110.236 30.3647 110.704C30.0407 111.16 29.6027 111.52 29.0507 111.784C28.5107 112.048 27.8327 112.18 27.0167 112.18ZM27.0167 111.1C28.0847 111.1 28.8767 110.746 29.3927 110.038C29.9087 109.33 30.1787 108.358 30.2027 107.122C30.2147 106.774 30.2207 106.45 30.2207 106.15C30.2207 105.838 30.2207 105.532 30.2207 105.232C30.2207 104.92 30.2147 104.602 30.2027 104.278C30.1787 103.066 29.9087 102.1 29.3927 101.38C28.8767 100.66 28.0847 100.3 27.0167 100.3C25.9607 100.3 25.1687 100.66 24.6407 101.38C24.1247 102.1 23.8547 103.066 23.8307 104.278C23.8307 104.602 23.8247 104.92 23.8127 105.232C23.8127 105.532 23.8127 105.838 23.8127 106.15C23.8247 106.45 23.8307 106.774 23.8307 107.122C23.8547 108.358 24.1247 109.33 24.6407 110.038C25.1687 110.746 25.9607 111.1 27.0167 111.1ZM38.1085 112.18C37.2925 112.18 36.6085 112.048 36.0565 111.784C35.5165 111.52 35.0785 111.16 34.7425 110.704C34.4185 110.236 34.1845 109.702 34.0405 109.102C33.8965 108.502 33.8125 107.872 33.7885 107.212C33.7885 106.888 33.7825 106.558 33.7705 106.222C33.7705 105.886 33.7705 105.55 33.7705 105.214C33.7825 104.866 33.7885 104.524 33.7885 104.188C33.8005 103.528 33.8785 102.898 34.0225 102.298C34.1785 101.698 34.4185 101.17 34.7425 100.714C35.0785 100.246 35.5165 99.88 36.0565 99.616C36.6085 99.352 37.2925 99.22 38.1085 99.22C38.9245 99.22 39.6025 99.352 40.1425 99.616C40.6945 99.88 41.1325 100.246 41.4565 100.714C41.7925 101.17 42.0325 101.698 42.1765 102.298C42.3325 102.898 42.4165 103.528 42.4285 104.188C42.4405 104.524 42.4465 104.866 42.4465 105.214C42.4465 105.55 42.4465 105.886 42.4465 106.222C42.4465 106.558 42.4405 106.888 42.4285 107.212C42.4165 107.872 42.3325 108.502 42.1765 109.102C42.0325 109.702 41.7925 110.236 41.4565 110.704C41.1325 111.16 40.6945 111.52 40.1425 111.784C39.6025 112.048 38.9245 112.18 38.1085 112.18ZM38.1085 111.1C39.1765 111.1 39.9685 110.746 40.4845 110.038C41.0005 109.33 41.2705 108.358 41.2945 107.122C41.3065 106.774 41.3125 106.45 41.3125 106.15C41.3125 105.838 41.3125 105.532 41.3125 105.232C41.3125 104.92 41.3065 104.602 41.2945 104.278C41.2705 103.066 41.0005 102.1 40.4845 101.38C39.9685 100.66 39.1765 100.3 38.1085 100.3C37.0525 100.3 36.2605 100.66 35.7325 101.38C35.2165 102.1 34.9465 103.066 34.9225 104.278C34.9225 104.602 34.9165 104.92 34.9045 105.232C34.9045 105.532 34.9045 105.838 34.9045 106.15C34.9165 106.45 34.9225 106.774 34.9225 107.122C34.9465 108.358 35.2165 109.33 35.7325 110.038C36.2605 110.746 37.0525 111.1 38.1085 111.1Z" fill="black"/>
<rect x="84" y="400" width="37" height="1" fill="#EA641B"/>
<rect x="228" y="337" width="37" height="64" fill="#EA641B"/>
<rect x="177" y="379" width="37" height="22" fill="#EA641B"/>
<rect x="127" y="392" width="37" height="9" fill="#EA641B"/>
<rect x="274" y="304" width="37" height="97" fill="#EA641B"/>
<rect x="331" y="233" width="37" height="168" fill="#EA641B"/>
<rect x="389" y="58" width="37" height="343" fill="#EA641B"/>
</svg>
