<svg width="37" height="37" viewBox="0 0 37 37" fill="none" xmlns="http://www.w3.org/2000/svg">
<path fill-rule="evenodd" clip-rule="evenodd" d="M8.9593 2.08008C7.13454 2.08008 5.38448 2.80478 4.09393 4.09483C2.80338 5.38489 2.078 7.13467 2.0773 8.95943V27.3114C2.0773 29.1367 2.80237 30.8871 4.09299 32.1777C5.38362 33.4684 7.13408 34.1934 8.9593 34.1934H27.3113C29.1361 34.1927 30.8858 33.4674 32.1759 32.1768C33.466 30.8863 34.1907 29.1362 34.1907 27.3114V8.95943C34.19 7.13513 33.4649 5.38575 32.175 4.09577C30.885 2.80579 29.1356 2.08078 27.3113 2.08008H8.9593ZM29.2908 8.97001C29.2908 9.4957 29.082 9.99987 28.7102 10.3716C28.3385 10.7433 27.8344 10.9521 27.3087 10.9521C26.783 10.9521 26.2788 10.7433 25.9071 10.3716C25.5353 9.99987 25.3265 9.4957 25.3265 8.97001C25.3265 8.44431 25.5353 7.94014 25.9071 7.56842C26.2788 7.1967 26.783 6.98786 27.3087 6.98786C27.8344 6.98786 28.3385 7.1967 28.7102 7.56842C29.082 7.94014 29.2908 8.44431 29.2908 8.97001ZM18.1379 12.6383C16.68 12.6383 15.2818 13.2175 14.2509 14.2484C13.22 15.2793 12.6408 16.6775 12.6408 18.1354C12.6408 19.5934 13.22 20.9916 14.2509 22.0225C15.2818 23.0534 16.68 23.6326 18.1379 23.6326C19.5959 23.6326 20.9941 23.0534 22.025 22.0225C23.0559 20.9916 23.6351 19.5934 23.6351 18.1354C23.6351 16.6775 23.0559 15.2793 22.025 14.2484C20.9941 13.2175 19.5959 12.6383 18.1379 12.6383ZM9.9953 18.1354C9.9953 15.9766 10.8529 13.9061 12.3795 12.3796C13.906 10.853 15.9764 9.99543 18.1353 9.99543C20.2942 9.99543 22.3646 10.853 23.8911 12.3796C25.4177 13.9061 26.2753 15.9766 26.2753 18.1354C26.2753 20.2943 25.4177 22.3647 23.8911 23.8913C22.3646 25.4178 20.2942 26.2754 18.1353 26.2754C15.9764 26.2754 13.906 25.4178 12.3795 23.8913C10.8529 22.3647 9.9953 20.2943 9.9953 18.1354Z" fill="#EA641B"/>
</svg>
