<svg width="57" height="57" viewBox="0 0 57 57" fill="none" xmlns="http://www.w3.org/2000/svg">
<path d="M14.25 23.2441C14.25 22.799 14.3751 22.3628 14.611 21.9854L20.1875 13.0625H36.8125L42.389 21.9854C42.6249 22.3628 42.75 22.799 42.75 23.2441V49.875C42.75 50.5049 42.4998 51.109 42.0544 51.5544C41.609 51.9998 41.0049 52.25 40.375 52.25H16.625C15.9951 52.25 15.391 51.9998 14.9456 51.5544C14.5002 51.109 14.25 50.5049 14.25 49.875V23.2441Z" stroke="#EA641B" stroke-width="2" stroke-linecap="round" stroke-linejoin="round"/>
<path d="M22.5625 39.1875V28.5L28.5 35.625L34.4375 28.5V39.1875M20.1875 4.75H36.8125V13.0625H20.1875V4.75Z" stroke="#EA641B" stroke-width="2" stroke-linecap="round" stroke-linejoin="round"/>
</svg>
