<svg width="52" height="52" viewBox="0 0 52 52" fill="none" xmlns="http://www.w3.org/2000/svg">
<path fill-rule="evenodd" clip-rule="evenodd" d="M29.9195 3.48839C30.6995 3.01173 31.6962 3.27173 32.1512 4.03006C33.4078 6.13173 34.0145 10.7901 29.2045 14.7984C28.5112 15.3617 27.4928 15.2751 26.9078 14.5817C26.6359 14.2468 26.5063 13.8186 26.5468 13.3891C26.5873 12.9596 26.7948 12.5632 27.1245 12.2851C30.6345 9.36006 29.8328 6.50006 29.3562 5.72006C29.14 5.3482 29.0779 4.90651 29.1832 4.48946C29.2885 4.07241 29.5527 3.71311 29.9195 3.48839ZM42.3128 12.5234C42.9412 11.8951 42.9412 10.8551 42.3128 10.2267C42.0068 9.92504 41.5943 9.75592 41.1645 9.75592C40.7347 9.75592 40.3222 9.92504 40.0162 10.2267L33.5162 16.7267C32.8878 17.3551 32.8878 18.3951 33.5162 19.0234C34.1445 19.6517 35.1845 19.6517 35.8128 19.0234L42.3128 12.5234ZM27.9478 20.4101L32.1295 24.5917C34.1445 26.6284 35.8128 28.2751 36.8745 29.7051C37.9795 31.2001 38.7162 32.7817 38.3695 34.6017C38.0445 36.4217 36.7878 37.6351 35.2278 38.6317C33.6895 39.6067 31.5662 40.5601 28.9445 41.7084L21.5128 45.0234C17.1145 46.9734 13.6262 48.5117 10.9828 49.2701C8.40451 50.0284 5.86951 50.2451 4.09284 48.4467C2.29451 46.6701 2.51117 44.1351 3.26951 41.5567C4.02784 38.9134 5.56617 35.4251 7.51617 31.0267L10.7662 23.7251L10.8312 23.5951C11.9795 20.9734 12.9328 18.8501 13.9078 17.3117C14.9045 15.7517 16.1178 14.4951 17.9378 14.1701C19.7578 13.8234 21.3395 14.5601 22.8345 15.6651C24.2645 16.7267 25.9112 18.3951 27.9478 20.4101ZM20.8845 18.2651C19.6928 17.3767 19.0428 17.2684 18.5228 17.3551C18.0028 17.4634 17.4395 17.7884 16.6378 19.0667C16.1612 19.8251 15.6628 20.8001 15.0995 22.0351C15.1428 22.0567 15.1862 22.1001 15.2295 22.1434L30.3962 37.3101C30.3962 37.3101 30.4828 37.3967 30.5045 37.4401C31.7395 36.8767 32.7145 36.3784 33.4728 35.9017C34.7512 35.1001 35.0762 34.5367 35.1845 34.0167C35.2712 33.4967 35.1628 32.8467 34.2745 31.6551C33.3645 30.4201 31.8695 28.9467 29.7245 26.8017L25.7378 22.8151C23.5928 20.6701 22.1195 19.1751 20.8845 18.2651ZM10.5495 32.2184L13.6695 25.1767L27.3628 38.8701L20.3212 41.9901L19.9095 42.1634C19.838 41.9644 19.719 41.786 19.5628 41.6434L10.8962 32.9767C10.7536 32.8206 10.5751 32.7016 10.3762 32.6301L10.5495 32.2184ZM9.01117 35.6851L16.8545 43.5284C14.0378 44.7634 11.8278 45.6517 10.0945 46.1501C7.60284 46.8651 6.77951 46.5617 6.38951 46.1501C5.97784 45.7601 5.67451 44.9367 6.38951 42.4451C6.88784 40.7117 7.77617 38.5017 9.01117 35.6851ZM48.5095 20.3884C46.4078 19.1317 41.7495 18.5251 37.7412 23.3351C37.1778 24.0284 37.2645 25.0467 37.9578 25.6317C38.6512 26.1951 39.6695 26.1084 40.2545 25.4151C43.1795 21.9051 46.0395 22.7067 46.8195 23.1834C47.5995 23.6384 48.5962 23.3784 49.0512 22.6201C49.5278 21.8401 49.2678 20.8434 48.5095 20.3884ZM38.9978 3.25006C39.8862 3.25006 40.6228 3.98673 40.6228 4.87506V4.91839C40.6228 5.80673 39.8862 6.54339 38.9978 6.54339C38.1095 6.54339 37.3728 5.80673 37.3728 4.91839V4.87506C37.3728 3.98673 38.1095 3.25006 38.9978 3.25006ZM49.2895 13.5417C49.2895 12.6534 48.5528 11.9167 47.6645 11.9167C46.7762 11.9167 46.0395 12.6534 46.0395 13.5417V13.5851C46.0395 14.4734 46.7762 15.2101 47.6645 15.2101C48.5528 15.2101 49.2895 14.4734 49.2895 13.5851V13.5417ZM45.4978 27.0834C46.3862 27.0834 47.1228 27.8201 47.1228 28.7084V28.7517C47.1228 29.6401 46.3862 30.3767 45.4978 30.3767C44.6095 30.3767 43.8728 29.6401 43.8728 28.7517V28.7084C43.8728 27.8201 44.6095 27.0834 45.4978 27.0834ZM25.4562 7.04173C25.4562 6.1534 24.7195 5.41673 23.8312 5.41673C22.9428 5.41673 22.2062 6.1534 22.2062 7.04173V7.08506C22.2062 7.9734 22.9428 8.71006 23.8312 8.71006C24.7195 8.71006 25.4562 7.9734 25.4562 7.08506V7.04173Z" fill="#EA641B"/>
</svg>
