<svg width="58" height="58" viewBox="0 0 58 58" fill="none" xmlns="http://www.w3.org/2000/svg">
<path d="M53.1667 7.25H4.83333V21.75H7.24999V48.3333C7.24999 49.6152 7.75922 50.8446 8.66564 51.751C9.57207 52.6574 10.8014 53.1667 12.0833 53.1667H45.9167C47.1985 53.1667 48.4279 52.6574 49.3343 51.751C50.2408 50.8446 50.75 49.6152 50.75 48.3333V21.75H53.1667V7.25ZM9.66666 12.0833H48.3333V16.9167H9.66666V12.0833ZM45.9167 48.3333H12.0833V21.75H45.9167V48.3333ZM21.75 26.5833H36.25C36.25 27.8652 35.7408 29.0946 34.8343 30.001C33.9279 30.9074 32.6985 31.4167 31.4167 31.4167H26.5833C25.3014 31.4167 24.0721 30.9074 23.1656 30.001C22.2592 29.0946 21.75 27.8652 21.75 26.5833Z" fill="#EA641B"/>
</svg>
