<svg width="40" height="44" viewBox="0 0 40 44" fill="none" xmlns="http://www.w3.org/2000/svg">
<path d="M18.3333 8.14815C18.3333 8.58035 18.1577 8.99486 17.8452 9.30047C17.5326 9.60608 17.1087 9.77778 16.6667 9.77778H13.3333C12.8913 9.77778 12.4674 9.60608 12.1548 9.30047C11.8423 8.99486 11.6667 8.58035 11.6667 8.14815C11.6667 7.71594 11.8423 7.30144 12.1548 6.99583C12.4674 6.69021 12.8913 6.51852 13.3333 6.51852H16.6667C17.1087 6.51852 17.5326 6.69021 17.8452 6.99583C18.1577 7.30144 18.3333 7.71594 18.3333 8.14815ZM29.2333 35.2693L29.9667 40.2804C30.0341 40.7426 29.9992 41.2136 29.8643 41.6615C29.7294 42.1094 29.4976 42.5238 29.1847 42.8765C28.8718 43.2292 28.485 43.512 28.0506 43.7059C27.6162 43.8997 27.1442 44 26.6667 44H13.3333C12.8558 44 12.3838 43.8997 11.9494 43.7059C11.515 43.512 11.1282 43.2292 10.8153 42.8765C10.5024 42.5238 10.2706 42.1094 10.1357 41.6615C10.0008 41.2136 9.96588 40.7426 10.0333 40.2804L10.7667 35.2693C7.52271 33.6162 4.80402 31.1256 2.90588 28.068C1.00775 25.0104 0.00273148 21.5027 0 17.9259C0 17.4937 0.175595 17.0792 0.488156 16.7736C0.800716 16.468 1.22464 16.2963 1.66667 16.2963H5V3.25926C5 2.39485 5.35119 1.56584 5.97631 0.954615C6.60143 0.343385 7.44928 0 8.33333 0H31.6667C32.5507 0 33.3986 0.343385 34.0237 0.954615C34.6488 1.56584 35 2.39485 35 3.25926V16.2963H38.3333C38.7754 16.2963 39.1993 16.468 39.5118 16.7736C39.8244 17.0792 40 17.4937 40 17.9259C39.9973 21.5027 38.9923 25.0104 37.0941 28.068C35.196 31.1256 32.4773 33.6162 29.2333 35.2693ZM8.33333 16.2963H31.6667V3.25926H8.33333V16.2963ZM26.0563 36.5648C22.1155 37.787 17.8845 37.787 13.9437 36.5648L13.3333 40.7407H26.6667L26.0563 36.5648ZM36.5833 19.5556H3.41667C3.82936 23.5756 5.75462 27.3025 8.81888 30.0129C11.8831 32.7234 15.8679 34.2243 20 34.2243C24.1321 34.2243 28.1169 32.7234 31.1811 30.0129C34.2454 27.3025 36.1706 23.5756 36.5833 19.5556Z" fill="#EA641B"/>
</svg>
